# xmcd
#
# Track frame offsets:
#	150
#	15483
#	28319
#	38250
#	55599
#	69960
#	80943
#	93135
#	107750
#	116434
#	127781
#	143903
#
# Disc length: 2142 seconds
#
# Revision: 1
# Processed by: cddbd v1.5.2PL0 Copyright (c) Steve Scherf et al.
# Submitted via: audiograbber 1.83.01
#
DISCID=8d085c0c
DTITLE=Gunnhild - Finally
DYEAR=1900
DGENRE=Country
TTITLE0=You`ve Got A Hold On Me
TTITLE1=Don`t Tell Me
TTITLE2=A Little Country Rockin
TTITLE3=Away From This Town
TTITLE4=Goodnight My Love Goodnight
TTITLE5=Living Ain`t Easy
TTITLE6=You Stole My Heart
TTITLE7=Daddy`s Gone
TTITLE8=Heartbreak Rain
TTITLE9=I`ll Drink Champagne
TTITLE10=Reason For Living
TTITLE11=A Love Like This
EXTD=
EXTT0=
EXTT1=
EXTT2=
EXTT3=
EXTT4=
EXTT5=
EXTT6=
EXTT7=
EXTT8=
EXTT9=
EXTT10=
EXTT11=
PLAYORDER=
